<mxfile host="app.diagrams.net" agent="Mozilla/5.0 (Windows NT 10.0; Win64; x64) AppleWebKit/537.36 (KHTML, like Gecko) Chrome/133.0.0.0 Safari/537.36" version="26.0.11">
  <diagram name="1 oldal" id="3Ee59PA6HE_EACheqODG">
    <mxGraphModel dx="1562" dy="893" grid="1" gridSize="10" guides="1" tooltips="1" connect="1" arrows="1" fold="1" page="1" pageScale="1" pageWidth="827" pageHeight="1169" math="0" shadow="0">
      <root>
        <mxCell id="0" />
        <mxCell id="1" parent="0" />
        <mxCell id="0zTp6kpJhSG1kdRF51kU-8" style="edgeStyle=orthogonalEdgeStyle;rounded=0;orthogonalLoop=1;jettySize=auto;html=1;exitX=0.5;exitY=1;exitDx=0;exitDy=0;entryX=0.5;entryY=0;entryDx=0;entryDy=0;" edge="1" parent="1" source="0zTp6kpJhSG1kdRF51kU-1" target="0zTp6kpJhSG1kdRF51kU-2">
          <mxGeometry relative="1" as="geometry" />
        </mxCell>
        <mxCell id="0zTp6kpJhSG1kdRF51kU-9" value="Call" style="edgeLabel;html=1;align=center;verticalAlign=middle;resizable=0;points=[];" vertex="1" connectable="0" parent="0zTp6kpJhSG1kdRF51kU-8">
          <mxGeometry x="0.125" y="3" relative="1" as="geometry">
            <mxPoint as="offset" />
          </mxGeometry>
        </mxCell>
        <mxCell id="0zTp6kpJhSG1kdRF51kU-1" value="UsernamePasswordAuthenticationFilter" style="rounded=0;whiteSpace=wrap;html=1;fillColor=#ffe6cc;strokeColor=#d79b00;" vertex="1" parent="1">
          <mxGeometry x="120" y="80" width="240" height="40" as="geometry" />
        </mxCell>
        <mxCell id="0zTp6kpJhSG1kdRF51kU-2" value="AuthenticationManager&lt;div&gt;.authenticate(Authentication)&lt;/div&gt;" style="rounded=0;whiteSpace=wrap;html=1;fillColor=#fff2cc;strokeColor=#d6b656;" vertex="1" parent="1">
          <mxGeometry x="120" y="200" width="240" height="40" as="geometry" />
        </mxCell>
        <mxCell id="0zTp6kpJhSG1kdRF51kU-3" value="UsernamePasswordAuthenticationToken&lt;div&gt;implements Authentication&lt;/div&gt;" style="rounded=0;whiteSpace=wrap;html=1;fillColor=#ffe6cc;strokeColor=#d79b00;" vertex="1" parent="1">
          <mxGeometry x="280" y="140" width="240" height="40" as="geometry" />
        </mxCell>
        <mxCell id="0zTp6kpJhSG1kdRF51kU-11" style="edgeStyle=orthogonalEdgeStyle;rounded=0;orthogonalLoop=1;jettySize=auto;html=1;exitX=0.5;exitY=0;exitDx=0;exitDy=0;entryX=0.5;entryY=1;entryDx=0;entryDy=0;" edge="1" parent="1" source="0zTp6kpJhSG1kdRF51kU-4" target="0zTp6kpJhSG1kdRF51kU-2">
          <mxGeometry relative="1" as="geometry" />
        </mxCell>
        <mxCell id="0zTp6kpJhSG1kdRF51kU-12" value="Implements" style="edgeLabel;html=1;align=center;verticalAlign=middle;resizable=0;points=[];" vertex="1" connectable="0" parent="0zTp6kpJhSG1kdRF51kU-11">
          <mxGeometry x="-0.2" y="1" relative="1" as="geometry">
            <mxPoint as="offset" />
          </mxGeometry>
        </mxCell>
        <mxCell id="0zTp6kpJhSG1kdRF51kU-13" style="edgeStyle=orthogonalEdgeStyle;rounded=0;orthogonalLoop=1;jettySize=auto;html=1;exitX=0.5;exitY=1;exitDx=0;exitDy=0;" edge="1" parent="1" source="0zTp6kpJhSG1kdRF51kU-4" target="0zTp6kpJhSG1kdRF51kU-5">
          <mxGeometry relative="1" as="geometry" />
        </mxCell>
        <mxCell id="0zTp6kpJhSG1kdRF51kU-14" value="Call" style="edgeLabel;html=1;align=center;verticalAlign=middle;resizable=0;points=[];" vertex="1" connectable="0" parent="0zTp6kpJhSG1kdRF51kU-13">
          <mxGeometry x="-0.4" y="-2" relative="1" as="geometry">
            <mxPoint as="offset" />
          </mxGeometry>
        </mxCell>
        <mxCell id="0zTp6kpJhSG1kdRF51kU-4" value="ProviderManager&lt;div&gt;.authenticate(Authentication)&lt;/div&gt;" style="rounded=0;whiteSpace=wrap;html=1;fillColor=#ffe6cc;strokeColor=#d79b00;" vertex="1" parent="1">
          <mxGeometry x="120" y="280" width="240" height="40" as="geometry" />
        </mxCell>
        <mxCell id="0zTp6kpJhSG1kdRF51kU-5" value="AuthenticationProvider&lt;div&gt;.authenticate(Authentication)&lt;/div&gt;" style="rounded=0;whiteSpace=wrap;html=1;fillColor=#fff2cc;strokeColor=#d6b656;" vertex="1" parent="1">
          <mxGeometry x="120" y="360" width="240" height="40" as="geometry" />
        </mxCell>
        <mxCell id="0zTp6kpJhSG1kdRF51kU-15" style="edgeStyle=orthogonalEdgeStyle;rounded=0;orthogonalLoop=1;jettySize=auto;html=1;exitX=0.5;exitY=0;exitDx=0;exitDy=0;entryX=0.5;entryY=1;entryDx=0;entryDy=0;" edge="1" parent="1" source="0zTp6kpJhSG1kdRF51kU-6" target="0zTp6kpJhSG1kdRF51kU-5">
          <mxGeometry relative="1" as="geometry" />
        </mxCell>
        <mxCell id="0zTp6kpJhSG1kdRF51kU-16" value="Implements" style="edgeLabel;html=1;align=center;verticalAlign=middle;resizable=0;points=[];" vertex="1" connectable="0" parent="0zTp6kpJhSG1kdRF51kU-15">
          <mxGeometry x="0.1" y="3" relative="1" as="geometry">
            <mxPoint as="offset" />
          </mxGeometry>
        </mxCell>
        <mxCell id="0zTp6kpJhSG1kdRF51kU-18" style="edgeStyle=orthogonalEdgeStyle;rounded=0;orthogonalLoop=1;jettySize=auto;html=1;exitX=0.5;exitY=1;exitDx=0;exitDy=0;" edge="1" parent="1" source="0zTp6kpJhSG1kdRF51kU-6" target="0zTp6kpJhSG1kdRF51kU-7">
          <mxGeometry relative="1" as="geometry" />
        </mxCell>
        <mxCell id="0zTp6kpJhSG1kdRF51kU-19" value="Call" style="edgeLabel;html=1;align=center;verticalAlign=middle;resizable=0;points=[];" vertex="1" connectable="0" parent="0zTp6kpJhSG1kdRF51kU-18">
          <mxGeometry x="-0.25" relative="1" as="geometry">
            <mxPoint as="offset" />
          </mxGeometry>
        </mxCell>
        <mxCell id="0zTp6kpJhSG1kdRF51kU-6" value="DaoAuthenticationProvider&lt;div&gt;.authenticate(Authentication)&lt;/div&gt;" style="rounded=0;whiteSpace=wrap;html=1;fillColor=#ffe6cc;strokeColor=#d79b00;" vertex="1" parent="1">
          <mxGeometry x="120" y="440" width="240" height="40" as="geometry" />
        </mxCell>
        <mxCell id="0zTp6kpJhSG1kdRF51kU-7" value="UserDetailsService&lt;div&gt;.loadUserByUsername(String)&lt;/div&gt;" style="rounded=0;whiteSpace=wrap;html=1;fillColor=#fff2cc;strokeColor=#d6b656;" vertex="1" parent="1">
          <mxGeometry x="120" y="520" width="240" height="40" as="geometry" />
        </mxCell>
      </root>
    </mxGraphModel>
  </diagram>
</mxfile>
